<?xml version="1.0" standalone="no"?>
<!DOCTYPE svg PUBLIC "-//W3C//DTD SVG 20010904//EN"
 "http://www.w3.org/TR/2001/REC-SVG-20010904/DTD/svg10.dtd">
<svg version="1.0" xmlns="http://www.w3.org/2000/svg"
 width="794.000000pt" height="793.000000pt" viewBox="0 0 794.000000 793.000000"
 preserveAspectRatio="xMidYMid meet">
<metadata>
Created by potrace 1.16, written by Peter Selinger 2001-2019
</metadata>
<g transform="translate(0.000000,793.000000) scale(0.100000,-0.100000)"
fill="#004700" stroke="none">
<path d="M4801 7523 c-44 -45 -52 -62 -91 -184 -23 -74 -58 -183 -77 -244 -44
-138 -136 -332 -208 -441 -64 -96 -184 -227 -264 -288 -31 -23 -99 -69 -151
-101 -505 -308 -905 -662 -1278 -1129 -294 -367 -418 -623 -458 -946 -21 -166
-30 -599 -15 -740 45 -439 215 -871 528 -1350 86 -130 96 -150 100 -201 l6
-57 -49 -45 c-27 -25 -193 -168 -369 -317 -176 -150 -433 -369 -571 -486 -277
-235 -323 -288 -331 -371 -5 -47 -4 -50 42 -92 78 -71 250 -141 350 -141 52 0
78 17 205 132 126 113 231 225 702 749 234 260 367 400 387 409 42 17 112 12
616 -45 l401 -45 164 58 c341 122 387 145 646 322 530 363 684 516 881 875
235 428 360 959 337 1435 -21 451 -138 961 -333 1448 -176 439 -336 734 -818
1507 -179 288 -203 318 -271 331 -30 6 -37 2 -81 -43z m386 -785 c41 -44 280
-568 332 -728 12 -35 92 -389 178 -785 133 -612 157 -736 161 -828 5 -126 -11
-324 -38 -476 -95 -527 -401 -1034 -904 -1499 -278 -258 -556 -403 -906 -472
-170 -34 -235 -33 -345 9 -49 19 -92 36 -93 37 -2 1 19 47 47 101 31 60 118
188 222 328 458 619 597 835 719 1120 73 169 141 373 194 581 45 178 175 803
221 1068 28 158 27 163 -44 246 l-39 44 -40 -27 c-114 -80 -115 -82 -181 -280
-33 -100 -110 -339 -170 -532 -286 -909 -375 -1098 -901 -1905 -212 -324 -273
-405 -351 -461 l-26 -18 -54 67 c-73 91 -112 159 -145 250 -62 174 -94 242
-166 349 -150 223 -177 351 -198 943 -14 408 0 604 58 770 61 176 188 352 349
483 38 30 327 240 643 467 928 666 950 684 1286 1043 129 137 150 149 191 105z"/>
</g>
</svg>
